name rise45.9887peak57.8056fall74.9286.mot
datacolumns 19
datarows 20
range 5.54998400000000 5.58165100000000
endheader
time	ground_force1_vx	ground_force1_vy	ground_force1_vz	ground_force1_px	ground_force1_py	ground_force1_pz	ground_force2_vx	ground_force2_vy	ground_force2_vz	ground_force2_px	ground_force2_py	ground_force2_pz	ground_torque1_x	ground_torque1_y	ground_torque1_z	ground_torque2_x	ground_torque2_y	ground_torque2_z	
5.54998400000000	-4.32487900000000	40.40080000000000	-7.60040200000000	0.31786000000000	0.00000000000000	0.09139000000000	-59.42139200000000	799.09432900000002	-48.44155800000000	0.12506200000000	0.00000000000000	-0.07317100000000	0.00000000000000	-5.42477900000000	0.00000000000000	0.00000000000000	-18.03030100000000	0.00000000000000	
5.55164800000000	-4.66272000000000	47.38933400000000	-8.54512700000000	0.32330900000000	0.00000000000000	0.09222200000000	-60.33996600000000	797.07362699999999	-48.10503300000000	0.12404600000000	0.00000000000000	-0.07306700000000	0.00000000000000	-6.17355300000000	0.00000000000000	0.00000000000000	-18.01022700000000	0.00000000000000	
5.55331400000000	-4.89403600000000	54.47290300000000	-9.40225300000000	0.32828300000000	0.00000000000000	0.09297400000000	-61.26965100000000	794.92083500000001	-47.74455700000000	0.12303400000000	0.00000000000000	-0.07296000000000	0.00000000000000	-6.87437900000000	0.00000000000000	0.00000000000000	-17.98980900000000	0.00000000000000	
5.55498500000000	-5.00562300000000	61.55990600000000	-10.15132600000000	0.33286100000000	0.00000000000000	0.09365700000000	-62.20913900000000	792.63211400000000	-47.36009000000000	0.12202500000000	0.00000000000000	-0.07284900000000	0.00000000000000	-7.51141300000000	0.00000000000000	0.00000000000000	-17.96892800000000	0.00000000000000	
5.55665000000000	-4.98960000000000	68.58049099999999	-10.77864400000000	0.33710500000000	0.00000000000000	0.09428200000000	-63.15703000000000	790.20359699999995	-46.95162900000000	0.12102100000000	0.00000000000000	-0.07273400000000	0.00000000000000	-8.07346100000000	0.00000000000000	0.00000000000000	-17.94745500000000	0.00000000000000	
5.55831700000000	-4.84329600000000	75.48874600000001	-11.27735200000000	0.34106500000000	0.00000000000000	0.09485700000000	-64.11182599999999	787.63140299999998	-46.51920500000000	0.12002400000000	0.00000000000000	-0.07261500000000	0.00000000000000	-8.55417400000000	0.00000000000000	0.00000000000000	-17.92524500000000	0.00000000000000	
5.55998200000000	-4.56874600000000	82.26256200000000	-11.64696300000000	0.34478100000000	0.00000000000000	0.09538900000000	-65.07193900000000	784.91164300000003	-46.06288700000000	0.11903400000000	0.00000000000000	-0.07249300000000	0.00000000000000	-8.95181900000000	0.00000000000000	0.00000000000000	-17.90214300000000	0.00000000000000	
5.56164800000000	-4.17187600000000	88.90156100000000	-11.89244200000000	0.34828500000000	0.00000000000000	0.09588300000000	-66.03569200000000	782.04043700000000	-45.58278000000000	0.11805300000000	0.00000000000000	-0.07236600000000	0.00000000000000	-9.26869800000000	0.00000000000000	0.00000000000000	-17.87797800000000	0.00000000000000	
5.56331800000000	-3.66152800000000	95.42359900000000	-12.02300200000000	0.35160500000000	0.00000000000000	0.09634400000000	-67.00131800000000	779.01392499999997	-45.07903100000000	0.11708100000000	0.00000000000000	-0.07223600000000	0.00000000000000	-9.51035000000000	0.00000000000000	0.00000000000000	-17.85256900000000	0.00000000000000	
5.56498000000000	-3.04841500000000	101.86037500000000	-12.05075800000000	0.35476200000000	0.00000000000000	0.09677600000000	-67.96696799999999	775.82827999999995	-44.55182200000000	0.11612000000000	0.00000000000000	-0.07210100000000	0.00000000000000	-9.68461500000000	0.00000000000000	0.00000000000000	-17.82572200000000	0.00000000000000	
5.56664400000000	-2.34410400000000	108.25268600000000	-11.98938500000000	0.35777400000000	0.00000000000000	0.09718200000000	-68.93071200000000	772.47972100000004	-44.00137900000000	0.11517100000000	0.00000000000000	-0.07196300000000	0.00000000000000	-9.80067000000000	0.00000000000000	0.00000000000000	-17.79723200000000	0.00000000000000	
5.56831300000000	-1.56012300000000	114.64574399999999	-11.85287600000000	0.36065700000000	0.00000000000000	0.09756500000000	-69.89054600000000	768.96452899999997	-43.42796700000000	0.11423600000000	0.00000000000000	-0.07182000000000	0.00000000000000	-9.86812300000000	0.00000000000000	0.00000000000000	-17.76688300000000	0.00000000000000	
5.56997700000000	-0.70721400000000	121.08495300000000	-11.65449400000000	0.36342400000000	0.00000000000000	0.09792600000000	-70.84439100000000	765.27906299999995	-42.83189300000000	0.11331400000000	0.00000000000000	-0.07167200000000	0.00000000000000	-9.89622900000000	0.00000000000000	0.00000000000000	-17.73444900000000	0.00000000000000	
5.57164900000000	0.20521000000000	127.61237300000001	-11.40595900000000	0.36608500000000	0.00000000000000	0.09826900000000	-71.79010200000000	761.41977299999996	-42.21350600000000	0.11240700000000	0.00000000000000	-0.07152100000000	0.00000000000000	-9.89326200000000	0.00000000000000	0.00000000000000	-17.69969400000000	0.00000000000000	
5.57331300000000	1.16940700000000	134.26403300000001	-11.11689800000000	0.36864800000000	0.00000000000000	0.09859500000000	-72.72547299999999	757.38321900000005	-41.57320000000000	0.11151700000000	0.00000000000000	-0.07136500000000	0.00000000000000	-9.86607200000000	0.00000000000000	0.00000000000000	-17.66237500000000	0.00000000000000	
5.57498300000000	2.17946300000000	141.06815800000001	-10.79454600000000	0.37112100000000	0.00000000000000	0.09890500000000	-73.64824100000000	753.16608499999995	-40.91141000000000	0.11064500000000	0.00000000000000	-0.07120500000000	0.00000000000000	-9.81982900000000	0.00000000000000	0.00000000000000	-17.62224000000000	0.00000000000000	
5.57664700000000	3.23127000000000	148.04425699999999	-10.44368500000000	0.37351000000000	0.00000000000000	0.09920100000000	-74.55609100000000	748.76520200000004	-40.22861600000000	0.10979000000000	0.00000000000000	-0.07104100000000	0.00000000000000	-9.75793800000000	0.00000000000000	0.00000000000000	-17.57903200000000	0.00000000000000	
5.57831500000000	4.32237400000000	155.20301200000000	-10.06678100000000	0.37582000000000	0.00000000000000	0.09948300000000	-75.44666400000000	744.17756099999997	-39.52534300000000	0.10895500000000	0.00000000000000	-0.07087200000000	0.00000000000000	-9.68210200000000	0.00000000000000	0.00000000000000	-17.53248800000000	0.00000000000000	
5.57997700000000	5.45171700000000	162.54681099999999	-9.66426300000000	0.37805500000000	0.00000000000000	0.09975400000000	-76.31756400000000	739.40033600000004	-38.80215700000000	0.10813900000000	0.00000000000000	-0.07069800000000	0.00000000000000	-9.59250300000000	0.00000000000000	0.00000000000000	-17.48233900000000	0.00000000000000	
5.58165100000000	6.61931700000000	170.07077400000000	-9.23491400000000	0.38021900000000	0.00000000000000	0.10001300000000	-77.16636099999999	734.43089999999995	-38.05967300000000	0.10734500000000	0.00000000000000	-0.07052000000000	0.00000000000000	-9.48806600000000	0.00000000000000	0.00000000000000	-17.42831400000000	0.00000000000000	
